<svg xmlns="http://www.w3.org/2000/svg" viewBox="0 0 24 24" id="location"><path fill="#91cafe" d="m12,2.25c-4.273,0-7.75,3.477-7.75,7.75,0,6.311,5.198,11.75,7.75,11.75s7.75-5.439,7.75-11.75c0-4.273-3.477-7.75-7.75-7.75Zm0,11.5c-2.068,0-3.75-1.682-3.75-3.75s1.682-3.75,3.75-3.75,3.75,1.682,3.75,3.75-1.682,3.75-3.75,3.75Z"></path><path fill="#494249" d="m12,6.25c-2.068,0-3.75,1.682-3.75,3.75s1.682,3.75,3.75,3.75,3.75-1.682,3.75-3.75-1.682-3.75-3.75-3.75Zm0,6c-1.241,0-2.25-1.009-2.25-2.25s1.009-2.25,2.25-2.25,2.25,1.009,2.25,2.25-1.009,2.25-2.25,2.25Zm0-10c-4.273,0-7.75,3.477-7.75,7.75,0,6.311,5.198,11.75,7.75,11.75s7.75-5.439,7.75-11.75c0-4.273-3.477-7.75-7.75-7.75Zm0,18c-1.531,0-6.25-4.612-6.25-10.25,0-3.446,2.804-6.25,6.25-6.25s6.25,2.804,6.25,6.25c0,5.638-4.719,10.25-6.25,10.25Z"></path></svg>