<svg xmlns="http://www.w3.org/2000/svg" style="isolation:isolate" width="96" height="96" id="phone"><defs><clipPath id="a"><path d="M0 0h96v96H0z"></path></clipPath></defs><g clip-path="url(#a)" color="#000" font-family="sans-serif" font-weight="400"><path fill="#4e9a06" style="line-height:normal;font-variant-ligatures:normal;font-variant-position:normal;font-variant-caps:normal;font-variant-numeric:normal;font-variant-alternates:normal;font-variant-east-asian:normal;font-feature-settings:normal;font-variation-settings:normal;text-indent:0;text-align:start;text-decoration-line:none;text-decoration-style:solid;text-decoration-color:#000;text-transform:none;text-orientation:mixed;shape-padding:0;shape-margin:0;inline-size:0;isolation:auto;mix-blend-mode:normal;filter-blend-mode:normal;filter-gaussianBlur-deviation:0" d="M30.2 57 17 43.8C9.3 36 9.3 23.4 17 15.6l4.4-4.4 14.5 14.4c.7.8.7 2.1 0 2.9l-.4.3c-2.9 2.9-2.9 7.7 0 10.6l6.2 6.1 8.8 8.8 6.1 6.2c2.9 2.9 7.7 2.9 10.6 0l1.8-1.8 15.8 15.9-4.4 4.4c-7.8 7.7-20.4 7.7-28.2 0Z" overflow="visible"></path><path style="line-height:normal;font-variant-ligatures:normal;font-variant-position:normal;font-variant-caps:normal;font-variant-numeric:normal;font-variant-alternates:normal;font-variant-east-asian:normal;font-feature-settings:normal;font-variation-settings:normal;text-indent:0;text-align:start;text-decoration-line:none;text-decoration-style:solid;text-decoration-color:#000;text-transform:none;text-orientation:mixed;shape-padding:0;shape-margin:0;inline-size:0;isolation:auto;mix-blend-mode:normal;filter-blend-mode:normal;filter-gaussianBlur-deviation:0" d="M21.416 8.2a3 3 0 0 0-2.137.878l-4.4 4.4a3 3 0 0 0-.014.014c-8.835 8.95-8.835 23.467 0 32.416a3 3 0 0 0 .014.014l13.2 13.2 22 22a3 3 0 0 0 .013.013c8.95 8.835 23.466 8.835 32.416 0a3 3 0 0 0 .013-.014l4.4-4.4a3 3 0 0 0 .007-4.235l-15.8-15.9a3 3 0 0 0-4.25-.008l-1.8 1.8c-1.73 1.73-4.628 1.73-6.357 0l-6.082-6.183a3 3 0 0 0-.018-.017l-8.799-8.8a3 3 0 0 0-.017-.017L37.62 37.28c-1.708-1.708-1.714-4.546-.049-6.283l.127-.096a3 3 0 0 0 .46-.425c1.76-2.013 1.76-4.838 0-6.85a3 3 0 0 0-.145-.154l-14.5-14.399a3 3 0 0 0-2.098-.873zm-.008 7.236 11.713 11.632c-3.733 4.096-3.698 10.498.258 14.453a3 3 0 0 0 .017.018l6.192 6.092 8.781 8.781 6.092 6.192a3 3 0 0 0 .018.017c3.953 3.954 10.35 3.99 14.447.262l11.638 11.71-2.271 2.272c-6.646 6.56-17.32 6.564-23.97.014l-.007-.006-.01-.008L32.323 54.88 19.135 41.693l-.008-.01-.006-.005c-6.55-6.652-6.547-17.325.014-23.971l2.273-2.271z" overflow="visible"></path></g></svg>